<svg xmlns="http://www.w3.org/2000/svg" viewBox="0 0 137.77 49"><defs><style>.cls-1{fill:#2a41e8;}</style></defs><title>Asset 4</title><g id="Layer_2" data-name="Layer 2"><g id="Layer_1-2" data-name="Layer 1"><path class="cls-1" d="M27.57,13.48c.57-1.22,1.14-2.43,1.74-3.73C22.69,7,16.23,7.1,10,10.78c-6,3.55-9.21,9-10,15.9L4.1,27A16.63,16.63,0,0,1,27.57,13.48Z"/><path class="cls-1" d="M40.88,24.9l-4,.71A16.59,16.59,0,0,1,22,44.93c.12,1.36.23,2.69.35,4C32.37,48.58,43.11,38.52,40.88,24.9Z"/><path class="cls-1" d="M4,29.92l-3.92.34C.42,38.66,7.74,48.1,18.78,49c.12-1.36.24-2.69.35-4C10.5,43.57,5.49,38.57,4,29.92Z"/><path class="cls-1" d="M25.66,22.92a.66.66,0,0,0-.67.67V36.86a.66.66,0,0,0,.67.67h4.59a.67.67,0,0,0,.67-.67V23.59a.66.66,0,0,0-.67-.67Zm3.92,13.27H26.33V24.27h3.25Z"/><path class="cls-1" d="M10.93,26.44a.66.66,0,0,0-.67.67v9.75a.66.66,0,0,0,.67.67h4.59a.67.67,0,0,0,.67-.67V27.11a.67.67,0,0,0-.67-.67Zm.67,9.75v-1l1,1Zm2.1,0-2.1-2.11V33l3.17,3.18H13.7Zm1.15-1L11.6,32V30.89l3.25,3.25Zm0-2.12L11.6,29.83V28.77L14.85,32Zm0-2.12-3.17-3.17h1.06l2.11,2.11Zm0-2.13-1-1h1Z"/><path class="cls-1" d="M18.29,17.53a.66.66,0,0,0-.67.67V36.86a.66.66,0,0,0,.67.67h4.59a.66.66,0,0,0,.67-.67V18.2a.66.66,0,0,0-.67-.67Z"/><path class="cls-1" d="M48.25,17.18H66v5H60V42.36H54.23V22.21h-6Z"/><path class="cls-1" d="M72.31,26.24a7.13,7.13,0,0,1,5.13,2V26.7h5.4V42.36H77.5V40.59h-.06a6.91,6.91,0,0,1-5.13,2.23c-4.58,0-7.79-3.69-7.79-8.27S67.73,26.24,72.31,26.24Zm1.62,12a3.52,3.52,0,0,0,3.63-3.66,3.65,3.65,0,1,0-7.3,0A3.49,3.49,0,0,0,73.93,38.21Z"/><path class="cls-1" d="M97,42.82a6.91,6.91,0,0,1-5.13-2.23h-.06v1.77H86.51V16.11h5.4V28.2a7.13,7.13,0,0,1,5.13-2c4.58,0,7.79,3.73,7.79,8.31S101.62,42.82,97,42.82Zm-1.62-12a3.58,3.58,0,0,0-3.63,3.7,3.65,3.65,0,1,0,7.3,0A3.59,3.59,0,0,0,95.42,30.85Z"/><path class="cls-1" d="M113.34,20.23a3.21,3.21,0,1,1-3.2-3.21A3.21,3.21,0,0,1,113.34,20.23Zm-6,22.13h5.4V26.7h-5.4Z"/><path class="cls-1" d="M116.58,26.7H122V29h.07a6.13,6.13,0,0,1,4.79-2.72,6.5,6.5,0,0,1,3.42,1L128,31.8a4.59,4.59,0,0,0-2.81-.85A3.25,3.25,0,0,0,122,34.12v8.24h-5.4Z"/><path class="cls-1" d="M137.77,20.23A3.21,3.21,0,1,1,134.56,17,3.21,3.21,0,0,1,137.77,20.23Zm-6,22.13h5.4V26.7h-5.4Z"/><path class="cls-1" d="M48.9,4.07,52,1,51,0l-3.1,3.1a3.64,3.64,0,0,1,.54.43A3.64,3.64,0,0,1,48.9,4.07Z"/><path class="cls-1" d="M33.41,23.45l1-1-1-1,1-1-2.91-2.91-1,1-1-1-1,1Z"/><path class="cls-1" d="M39.24,21.5l-3.89-3.88,1-1,2,1.94,1-1L36.32,14.7l1-1,2.92,2.92,1-1-1.94-1.95,1-1,1.94,1.94,1-1L38.27,8.88,32.44,14.7l-1.95-1.94-1,1,8.75,8.75Z"/><path class="cls-1" d="M46,8.88,47.5,7.42a2.08,2.08,0,0,0,0-2.92,2.08,2.08,0,0,0-2.92,0L43.12,6l-1-1L47,9.85Z"/><path class="cls-1" d="M46,10.82,44.1,12.76,39.24,7.9,41.18,6Z"/></g></g></svg>